PathFileType	4	(X/Y/Z)	..\data\2014031\dynamic\2014031_C5_05.trc
DataRate	CameraRate	NumFrames	NumMarkers	Units	OrigDataRate	OrigDataStartFrame	OrigNumFrames
100.000000	100.000000	4	52	mm	100.000000	0	153
Frame#	Time	L_IAS			L_IPS			R_IPS			R_IAS			L_FTC			L_FLE			L_FME			L_FAX			L_TTC			L_FAL			L_TAM			L_FCC			L_FM1			L_FM2			L_FM5			R_FTC			R_FLE			R_FME			R_FAX			R_TTC			R_FAL			R_TAM			R_FCC			R_FM1			R_FM2			R_FM5			CV7			TV10			SXS			SJN			L_SIA			L_SRS			L_SAA			L_SAE			L_HLE			L_HME			L_UOA			L_RSP			L_UHE			L_HM2			L_HM5			R_SIA			R_SRS			R_SAA			R_SAE			R_HLE			R_HME			R_UOA			R_RSP			R_UHE			R_HM2			R_HM5			
		X1	Y1	Z1	X2	Y2	Z2	X3	Y3	Z3	X4	Y4	Z4	X5	Y5	Z5	X6	Y6	Z6	X7	Y7	Z7	X8	Y8	Z8	X9	Y9	Z9	X10	Y10	Z10	X11	Y11	Z11	X12	Y12	Z12	X13	Y13	Z13	X14	Y14	Z14	X15	Y15	Z15	X16	Y16	Z16	X17	Y17	Z17	X18	Y18	Z18	X19	Y19	Z19	X20	Y20	Z20	X21	Y21	Z21	X22	Y22	Z22	X23	Y23	Z23	X24	Y24	Z24	X25	Y25	Z25	X26	Y26	Z26	X27	Y27	Z27	X28	Y28	Z28	X29	Y29	Z29	X30	Y30	Z30	X31	Y31	Z31	X32	Y32	Z32	X33	Y33	Z33	X34	Y34	Z34	X35	Y35	Z35	X36	Y36	Z36	X37	Y37	Z37	X38	Y38	Z38	X39	Y39	Z39	X40	Y40	Z40	X41	Y41	Z41	X42	Y42	Z42	X43	Y43	Z43	X44	Y44	Z44	X45	Y45	Z45	X46	Y46	Z46	X47	Y47	Z47	X48	Y48	Z48	X49	Y49	Z49	X50	Y50	Z50	X51	Y51	Z51	X52	Y52	Z52	

1	0	-300.7946472167969	915.691833496094	-306.4624938964844	-496.9071655273439	943.7358398437502	-261.6973266601563	-505.576141357422	951.466003417969	-157.7247467041016	-314.8285827636719	919.885681152344	-78.6974334716797	-388.1976318359376	836.052917480469	-389.6281127929689	-210.1783752441407	461.6560058593751	-356.0245361328126	-211.5256652832032	448.0086059570314	-224.4320373535157	-192.1249694824219	404.2984619140626	-356.9307250976563	-134.676513671875	430.5688476562501	-297.7269592285157	-60.4673194885254	78.59087371826173	-329.7889099121094	-35.97337722778321	109.109115600586	-242.4315032958985	-71.21754455566408	13.57613563537598	-280.8605041503907	97.82320404052737	105.1120223999024	-251.7552337646485	92.66030883789064	119.4676055908203	-306.0693359375001	65.63704681396486	82.65438079833986	-350.4309692382813	-414.9760742187501	838.0977783203127	-19.36380577087403	-520.4147949218751	449.5098876953126	-70.28196716308595	-524.8714599609376	444.1825256347657	-198.7842407226563	-549.1984252929689	391.7581787109376	-71.45629119873048	-496.8997497558595	373.9934692382813	-132.1009979248047	-708.0507812500001	83.19317626953126	-117.7740631103516	-675.9755859375001	95.27953338623048	-205.7166290283204	-758.5941772460939	39.75325393676759	-168.6406555175782	-566.7747802734376	13.92573547363282	-180.0997619628907	-557.6754150390626	28.88827705383301	-121.5557098388672	-607.5711669921876	13.88683414459229	-73.37127685546876	-431.3136291503907	1469.676147460938	-198.6963653564454	-515.4665527343751	1191.891357421875	-202.7980346679688	-295.8544616699219	1180.9150390625	-204.8534851074219	-320.6820983886719	1374.6796875	-205.4239654541016	-525.6812744140626	1220.152221679688	-301.8323364257813	-472.9242248535157	1375.115966796875	-334.1663208007813	-428.7164001464845	1364.405151367188	-397.103485107422	-379.9206237792969	1363.234741210938	-402.3643798828126	-490.1199951171876	1046.2373046875	-467.6572875976564	-526.9642944335939	1035.294067382813	-391.6273193359376	-532.1195678710939	1032.772338867188	-441.296356201172	-466.0627441406251	780.4049072265627	-421.7009887695314	-487.4977111816407	792.8694458007815	-500.0630187988282	-474.6144104003907	690.7315063476564	-431.0746459960939	-523.5195312500001	725.1998901367189	-511.8871459960939	-516.1923828125001	1222.682739257813	-95.62025451660158	-465.4356384277345	1378.515747070313	-71.5266571044922	-404.5047607421876	1372.88720703125	-14.03155708312989	-360.3384704589844	1362.36669921875	-4.495485305786134	-317.2525634765626	1033.109375	72.95452117919923	-356.0300292968751	1001.531677246094	1.926762342453003	-350.9125976562501	986.859069824219	45.03010177612305	-104.4585723876953	913.8800048828127	-23.91971397399903	-123.2776870727539	869.373229980469	37.72461700439454	-23.38191604614258	871.6832275390627	-36.65241622924805	-69.27451324462892	804.2288208007815	23.45073699951172	
2	0.01	-283.0262451171876	912.9434204101565	-306.4008178710938	-479.3137512207032	941.2965087890627	-262.8915710449219	-488.4768676757814	949.0224609375002	-159.1110382080078	-298.1420898437501	917.484313964844	-78.32350921630861	-370.0845336914063	833.8936157226565	-390.2175903320314	-191.2508087158203	460.3766174316407	-356.8387145996094	-193.2467041015626	446.2689208984376	-225.2176818847657	-172.9450225830078	403.0344848632814	-357.8148803710938	-115.9239273071289	429.7299194335939	-298.2977905273438	-39.55722045898438	78.35032653808595	-330.8191223144532	-15.36917209625244	108.8683853149414	-243.3421630859376	-50.74949645996095	13.77848434448243	-281.8163146972657	118.1961212158203	104.6233139038086	-251.8231353759766	113.4583740234375	118.5824203491211	-306.2078247070313	86.60204315185548	81.6565399169922	-350.5274047851563	-399.9458312988282	836.101989746094	-19.92568397521973	-509.8602294921876	449.2287597656251	-70.58385467529298	-512.8209838867189	443.5146789550782	-199.0810546875001	-539.8965454101564	391.9235229492189	-71.65591430664064	-487.3066711425782	372.6602783203126	-131.7010040283203	-706.2871093750001	86.99475097656251	-117.4358749389649	-673.5157470703126	98.36246490478518	-205.4039306640626	-757.9806518554689	45.02873992919923	-168.4696655273438	-566.5153808593751	13.77137660980225	-179.9844818115235	-557.5370483398439	28.77299499511719	-121.5379104614258	-607.8945312500001	13.35899162292481	-73.57895660400392	-415.2073669433595	1467.253295898438	-200.6779327392579	-498.614959716797	1189.2646484375	-204.3650360107422	-278.7883300781251	1178.792114257813	-205.8697662353516	-304.2331237792969	1372.490234375	-206.9738159179688	-508.4761352539064	1216.968139648438	-303.4612426757813	-456.2249450683595	1372.262084960938	-335.9546203613282	-411.899139404297	1361.666137695313	-398.7259521484376	-362.7602233886719	1360.415161132813	-403.9530029296876	-476.0002746582032	1044.349243164063	-467.8880920410157	-512.2507324218751	1033.900756835938	-391.5162658691407	-517.8793945312501	1031.63037109375	-441.0633544921876	-457.9448242187501	778.049987792969	-423.4971923828126	-478.755828857422	791.5770263671877	-501.968963623047	-470.7296752929689	688.8684082031251	-432.846405029297	-517.3032836914064	725.6139526367189	-514.1495361328126	-499.757781982422	1220.134155273438	-97.63806915283206	-449.6602478027345	1376.223022460938	-73.53059387207033	-388.9137573242189	1370.825317382813	-15.71256637573243	-344.6289367675782	1360.479248046875	-5.991453647613526	-299.7113342285157	1031.719360351563	72.0560989379883	-338.4569702148438	999.537292480469	1.174625992774964	-332.6216125488282	984.7016601562502	44.06352233886719	-84.4468231201172	917.8975830078127	-25.5393466949463	-102.2803344726563	872.2178955078127	35.58602523803712	-2.295377731323243	878.2352294921877	-38.13575744628907	-46.42912673950196	808.7999267578127	20.81067276000977	
3	0.02	-265.0933227539063	910.698669433594	-306.5261840820313	-461.5128173828126	939.2188720703127	-263.9996032714844	-471.0148925781251	946.8364257812502	-160.4031982421875	-281.1096191406251	915.323425292969	-78.15666961669923	-351.6097106933594	832.359802246094	-391.0026245117189	-171.8922729492188	459.6130676269532	-357.7024841308594	-174.2022094726563	445.3646545410157	-226.1410064697266	-153.7997741699219	402.1438598632814	-358.7281494140626	-96.94801330566409	428.8866577148439	-299.0141296386719	-22.26090812683106	77.58631134033205	-331.6766967773438	1.998119592666626	107.8088912963867	-244.0892944335938	-34.71133422851563	13.93043518066407	-282.5368957519532	135.0263671875	101.7183914184571	-251.7954711914063	130.8158264160157	115.2313079833985	-306.2814025878907	103.7094192504883	78.6080780029297	-350.5490417480469	-384.4266967773439	834.303894042969	-20.58889198303223	-498.5908813476564	449.1036682128907	-70.7974319458008	-500.1138916015626	442.8773193359376	-199.2342529296876	-529.9282226562501	392.2971191406251	-71.71598052978517	-477.0885314941407	371.4109802246094	-131.0874328613282	-704.1083374023439	91.39084625244142	-116.858024597168	-670.5997924804689	101.8821563720703	-204.7857666015626	-756.9511108398439	51.17547607421876	-168.0779418945313	-566.4979248046876	13.46543693542481	-180.0191650390625	-557.5709228515626	28.54874801635743	-121.6669540405274	-608.3829956054689	12.7105712890625	-73.85106658935548	-399.0104980468751	1465.101440429688	-202.7569427490235	-481.5276184082032	1186.874267578125	-205.934799194336	-261.5224609375001	1177.024291992188	-207.0289001464844	-287.6353454589844	1370.6513671875	-208.6672058105469	-491.0804443359376	1214.082641601563	-305.1866760253907	-439.4104614257814	1369.703735351563	-337.8459167480469	-394.9553222656251	1359.243408203125	-400.4560546875001	-345.4851074218751	1357.938354492188	-405.6450195312501	-461.4038391113282	1042.699951171875	-468.2494506835939	-497.0197753906251	1032.661865234375	-391.521942138672	-503.147186279297	1030.626098632813	-440.9557189941407	-448.4724426269532	776.1040649414065	-425.2891235351564	-468.878387451172	790.5864257812502	-503.8145751953126	-465.3556213378907	687.4738159179689	-434.5132446289064	-509.8158569335939	726.3864746093751	-516.2058715820314	-483.0736083984376	1217.800537109375	-99.72345733642581	-433.7732238769532	1374.168334960938	-75.65709686279298	-373.2187194824219	1369.042358398438	-17.51597976684571	-328.8176879882813	1358.923706054688	-7.568236351013185	-282.5678405761719	1030.515625	70.96132659912111	-321.2338562011719	997.8569335937502	0.1519134789705277	-314.7863769531251	982.8453369140627	42.84457397460938	-65.19371032714845	921.570251464844	-27.07744789123536	-82.20802307128908	874.800720214844	33.52692031860352	17.91318511962891	884.165954589844	-39.44242858886719	-24.72252273559571	812.9768676757815	18.32026672363282	
4	0.03	-247.0218353271485	909.0234375000002	-306.8649597167969	-443.536346435547	937.5420532226565	-264.9970397949219	-453.2197570800782	944.9296875000002	-161.5621032714844	-263.7373352050782	913.4241943359377	-78.24050140380861	-332.8264770507813	831.4912109375002	-391.990203857422	-152.1881866455078	459.3516845703126	-358.6142578125001	-154.4986724853516	445.2783813476564	-227.1867675781251	-134.7077941894532	401.6361389160157	-359.6636352539063	-77.80103302001955	428.0682067871095	-299.8589782714844	-8.254786491394045	76.33680725097658	-332.3713989257813	16.37711334228516	106.0017929077149	-244.6704711914063	-22.7236557006836	14.02727222442627	-283.0642089843751	148.6198883056641	96.60180664062503	-251.6537628173829	145.0552520751953	109.6407546997071	-306.2766723632813	117.3119354248047	73.72756958007814	-350.5318603515626	-368.3720092773438	832.6853637695315	-21.35450172424317	-486.4678039550782	449.0816955566407	-70.9317092895508	-486.5902709960939	442.1986083984376	-199.2454528808594	-519.1511230468751	392.8450012207032	-71.64673614501955	-466.1017150878907	370.1886291503907	-130.2490692138672	-701.3740234375001	96.4233322143555	-116.0905227661133	-667.0670166015626	105.8304290771485	-203.8795013427735	-755.2865600585939	58.26971435546876	-167.5392303466797	-566.7659912109376	13.034255027771	-180.2305450439453	-557.8265991210939	28.21637153625489	-121.9606170654297	-609.0714721679689	12.04715728759766	-74.22362518310548	-382.7134399414063	1463.256103515625	-204.9276580810547	-464.2233886718751	1184.761596679688	-207.4880828857422	-244.0761108398438	1175.63623046875	-208.3099822998047	-270.8880920410157	1369.19384765625	-210.499740600586	-473.5130310058595	1211.5263671875	-306.9761352539063	-422.4827880859376	1367.465087890625	-339.8300476074219	-377.8920288085938	1357.151489257813	-402.2864685058595	-328.1214599609376	1355.82275390625	-407.433563232422	-446.3326721191407	1041.291748046875	-468.7576293945314	-481.2886962890626	1031.580200195313	-391.6699829101564	-487.9321899414064	1029.756958007813	-440.9996643066407	-437.5968627929689	774.5381469726565	-427.0896911621095	-457.8336791992189	789.8547973632815	-505.6080627441407	-458.3664550781251	686.4799194335939	-436.0842285156251	-501.0010070800782	727.4174804687501	-518.0490722656251	-466.1544189453126	1215.726684570313	-101.845703125	-417.7612609863282	1372.395141601563	-77.88262939453126	-357.3864746093751	1367.575927734375	-19.42930793762207	-312.8802795410157	1357.728637695313	-9.224221229553224	-265.8287658691407	1029.519775390625	69.68356323242189	-304.3298339843751	996.502136230469	-1.150869727134705	-297.4244384765626	981.3122558593752	41.38858032226563	-46.66200637817384	924.868835449219	-28.52038574218751	-63.03952407836915	877.0823364257815	31.55261611938477	37.27881240844727	889.4078369140627	-40.58256149291993	-4.145273685455323	816.6909179687502	15.98567485809327	
